<svg width="64" height="64" viewBox="0 0 64 64" fill="none" xmlns="http://www.w3.org/2000/svg">
<mask id="mask0_14_235" style="mask-type:alpha" maskUnits="userSpaceOnUse" x="0" y="0" width="64" height="64">
<rect width="64" height="64" fill="#D9D9D9"/>
</mask>
<g mask="url(#mask0_14_235)">
<path d="M43.1334 34.667H13.3334C12.5778 34.667 11.9445 34.4114 11.4334 33.9003C10.9222 33.3892 10.6667 32.7558 10.6667 32.0003C10.6667 31.2447 10.9222 30.6114 11.4334 30.1003C11.9445 29.5892 12.5778 29.3336 13.3334 29.3336H43.1334L30.0667 16.267C29.5334 15.7336 29.2778 15.1114 29.3 14.4003C29.3222 13.6892 29.6 13.067 30.1334 12.5336C30.6667 12.0447 31.2889 11.7892 32 11.767C32.7111 11.7447 33.3334 12.0003 33.8667 12.5336L51.4667 30.1336C51.7334 30.4003 51.9222 30.6892 52.0334 31.0003C52.1445 31.3114 52.2 31.6447 52.2 32.0003C52.2 32.3558 52.1445 32.6892 52.0334 33.0003C51.9222 33.3114 51.7334 33.6003 51.4667 33.867L33.8667 51.467C33.3778 51.9558 32.7667 52.2003 32.0334 52.2003C31.3 52.2003 30.6667 51.9558 30.1334 51.467C29.6 50.9336 29.3334 50.3003 29.3334 49.567C29.3334 48.8336 29.6 48.2003 30.1334 47.667L43.1334 34.667Z" fill="white"/>
</g>
</svg>
