<svg width="25" height="25" viewBox="0 0 25 25" fill="none" xmlns="http://www.w3.org/2000/svg">
<mask id="mask0_134_230" style="mask-type:alpha" maskUnits="userSpaceOnUse" x="0" y="0" width="25" height="25">
<rect x="0.289551" y="0.157379" width="24" height="24" fill="#D9D9D9"/>
</mask>
<g mask="url(#mask0_134_230)">
<path d="M12.2896 13.5574L7.3896 18.4574C7.20627 18.6407 6.97293 18.7324 6.6896 18.7324C6.40627 18.7324 6.17293 18.6407 5.9896 18.4574C5.80627 18.274 5.7146 18.0407 5.7146 17.7574C5.7146 17.474 5.80627 17.2407 5.9896 17.0574L10.8896 12.1574L5.9896 7.25737C5.80627 7.07403 5.7146 6.8407 5.7146 6.55737C5.7146 6.27403 5.80627 6.0407 5.9896 5.85737C6.17293 5.67403 6.40627 5.58237 6.6896 5.58237C6.97293 5.58237 7.20627 5.67403 7.3896 5.85737L12.2896 10.7574L17.1896 5.85737C17.3729 5.67403 17.6063 5.58237 17.8896 5.58237C18.1729 5.58237 18.4063 5.67403 18.5896 5.85737C18.7729 6.0407 18.8646 6.27403 18.8646 6.55737C18.8646 6.8407 18.7729 7.07403 18.5896 7.25737L13.6896 12.1574L18.5896 17.0574C18.7729 17.2407 18.8646 17.474 18.8646 17.7574C18.8646 18.0407 18.7729 18.274 18.5896 18.4574C18.4063 18.6407 18.1729 18.7324 17.8896 18.7324C17.6063 18.7324 17.3729 18.6407 17.1896 18.4574L12.2896 13.5574Z" fill="white"/>
</g>
</svg>
