<?xml version="1.0" encoding="UTF-8"?>
<svg id="_레이어_2" data-name="레이어 2" xmlns="http://www.w3.org/2000/svg" viewBox="0 0 1187.18 428.07">
  <defs>
    <style>
      .cls-1 {
        fill: #936cff;
      }

      .cls-1, .cls-2, .cls-3 {
        stroke-width: 0px;
      }

      .cls-2 {
        fill: #9797ff;
      }

      .cls-3 {
        fill: #fff;
      }
    </style>
  </defs>
  <g id="_레이어_1-2" data-name="레이어 1">
    <g>
      <g>
        <path class="cls-3" d="M562.04,27.2c-4.13,0-8.1.83-11.9,2.5-3.8,1.67-7.2,4.1-10.2,7.3-3,3.2-5.4,7.2-7.2,12-1.8,4.8-2.7,10.33-2.7,16.6,0,12.67,3.53,22.23,10.6,28.7,7.07,6.47,17.2,9.7,30.4,9.7s23.33-3.23,30.4-9.7c7.07-6.47,10.6-16.03,10.6-28.7,0-5.73-.57-10.7-1.7-14.9-1.13-4.2-2.53-7.67-4.2-10.4-1.67-2.73-3.53-4.73-5.6-6-2.07-1.27-4.03-1.9-5.9-1.9-4.53,0-6.8,3.6-6.8,10.8-3.07-1.33-5.33-3.03-6.8-5.1-1.47-2.07-2.2-4.83-2.2-8.3,0-2.53.5-5.07,1.5-7.6,1-2.53,2.53-4.8,4.6-6.8,2.07-2,4.77-3.63,8.1-4.9,3.33-1.27,7.33-1.9,12-1.9,6.27,0,12.13,1.23,17.6,3.7,5.47,2.47,10.23,6.1,14.3,10.9,4.07,4.8,7.27,10.67,9.6,17.6,2.33,6.93,3.5,14.87,3.5,23.8,0,17.33-4.97,31.47-14.9,42.4-9.93,10.93-25.03,17.73-45.3,20.4v27h58.2c5.2,0,9,1.1,11.4,3.3,2.4,2.2,3.6,5.17,3.6,8.9s-1.23,6.7-3.7,8.9c-2.47,2.2-6.23,3.3-11.3,3.3h-154c-5.2,0-9-1.1-11.4-3.3-2.4-2.2-3.6-5.17-3.6-8.9s1.23-6.7,3.7-8.9c2.47-2.2,6.23-3.3,11.3-3.3h57.8v-27.2c-20.27-2.67-35.3-9.4-45.1-20.2-9.8-10.8-14.7-24.93-14.7-42.4,0-9.73,1.6-18.4,4.8-26,3.2-7.6,7.8-14.07,13.8-19.4,6-5.33,13.33-9.4,22-12.2,8.67-2.8,18.47-4.2,29.4-4.2,5.6,0,9.73,1.07,12.4,3.2,2.67,2.13,4,5.13,4,9s-1.33,6.87-4,9c-2.67,2.13-6.8,3.2-12.4,3.2Z"/>
        <path class="cls-3" d="M805.04,31.2v99.8c0,5.47.23,9.97.7,13.5.47,3.53,1.2,6.4,2.2,8.6s2.27,3.73,3.8,4.6c1.53.87,3.43,1.3,5.7,1.3,1.46,0,2.73-.4,3.8-1.2,1.07-.8,1.73-1.93,2-3.4.27-1.47.1-3.13-.5-5-.6-1.87-1.77-3.93-3.5-6.2,2.13,0,4.3.37,6.5,1.1,2.2.73,4.2,1.87,6,3.4,1.8,1.53,3.23,3.47,4.3,5.8,1.07,2.33,1.6,5.17,1.6,8.5,0,6.67-2.1,11.9-6.3,15.7-4.2,3.8-10.37,5.7-18.5,5.7-6,0-11.33-1.33-16-4-4.67-2.67-8.27-6.27-10.8-10.8-2.67,4.53-6.3,8.13-10.9,10.8-4.6,2.67-9.9,4-15.9,4-8.13,0-14.3-1.9-18.5-5.7-4.2-3.8-6.3-9.03-6.3-15.7,0-3.33.53-6.17,1.6-8.5,1.07-2.33,2.5-4.27,4.3-5.8,1.8-1.53,3.77-2.67,5.9-3.4,2.13-.73,4.33-1.1,6.6-1.1-1.87,2.27-3.07,4.33-3.6,6.2-.53,1.87-.67,3.53-.4,5,.27,1.47.93,2.6,2,3.4,1.07.8,2.33,1.2,3.8,1.2,2.27,0,4.17-.43,5.7-1.3,1.53-.87,2.8-2.4,3.8-4.6s1.73-5.07,2.2-8.6c.47-3.53.7-8.03.7-13.5V31.2h-17.6c-5.2,0-9-1.1-11.4-3.3-2.4-2.2-3.6-5.17-3.6-8.9s1.23-6.7,3.7-8.9c2.47-2.2,6.23-3.3,11.3-3.3h73.2c5.2,0,9,1.1,11.4,3.3s3.6,5.17,3.6,8.9-1.23,6.7-3.7,8.9c-2.47,2.2-6.23,3.3-11.3,3.3h-17.6ZM859.64,188.4c-5.2,0-9.37-1.47-12.5-4.4-3.13-2.93-4.7-7.6-4.7-14v-70.6h-11.2c-5.2,0-9-1.1-11.4-3.3-2.4-2.2-3.6-5.17-3.6-8.9s1.23-6.7,3.7-8.9c2.46-2.2,6.23-3.3,11.3-3.3h11.2V21.8c0-6.4,1.57-11.07,4.7-14,3.13-2.93,7.3-4.4,12.5-4.4s9.37,1.47,12.5,4.4c3.13,2.93,4.7,7.6,4.7,14v148.2c0,6.4-1.57,11.07-4.7,14-3.13,2.93-7.3,4.4-12.5,4.4ZM903.84,188.4c-5.2,0-9.37-1.47-12.5-4.4-3.13-2.93-4.7-7.6-4.7-14V21.8c0-6.4,1.57-11.07,4.7-14,3.13-2.93,7.3-4.4,12.5-4.4s9.37,1.47,12.5,4.4c3.13,2.93,4.7,7.6,4.7,14v148.2c0,6.4-1.57,11.07-4.7,14-3.13,2.93-7.3,4.4-12.5,4.4Z"/>
        <path class="cls-3" d="M1005.84,94c0-17.73,1.87-32.63,5.6-44.7,3.73-12.07,8.4-21.73,14-29,5.6-7.27,11.6-12.47,18-15.6,6.4-3.13,12.33-4.7,17.8-4.7,5.07,0,8.6,1.1,10.6,3.3,2,2.2,3,4.7,3,7.5,0,3.33-.97,6.27-2.9,8.8-1.93,2.53-4.23,4.93-6.9,7.2-3.6,3.07-6.7,6.4-9.3,10-2.6,3.6-4.8,8-6.6,13.2-1.8,5.2-3.13,11.33-4,18.4-.87,7.07-1.3,15.6-1.3,25.6,0,13.87.5,25.13,1.5,33.8,1,8.67,2.4,15.43,4.2,20.3s4,8.2,6.6,10c2.6,1.8,5.57,2.7,8.9,2.7s6.3-.9,8.9-2.7c2.6-1.8,4.8-5.13,6.6-10s3.2-11.63,4.2-20.3c1-8.67,1.5-19.93,1.5-33.8s-.47-25.8-1.4-33.8c-.93-8-2.1-13.73-3.5-17.2-1.4-3.47-2.97-5.13-4.7-5-1.73.13-3.47,1-5.2,2.6,0-2.67.43-5.23,1.3-7.7.87-2.47,2.17-4.67,3.9-6.6,1.73-1.93,3.87-3.47,6.4-4.6,2.53-1.13,5.47-1.7,8.8-1.7,4.4,0,8.53,1.27,12.4,3.8,3.87,2.53,7.3,6.7,10.3,12.5,3,5.8,5.37,13.43,7.1,22.9,1.73,9.47,2.6,21.07,2.6,34.8,0,31.47-5,54.53-15,69.2s-24.73,22-44.2,22-34.2-7.33-44.2-22-15-37.73-15-69.2ZM1181.04,167.4c0,7.2-1.67,12.5-5,15.9-3.33,3.4-8,5.1-14,5.1s-10.67-1.7-14-5.1c-3.33-3.4-5-8.7-5-15.9V24.4c0-7.2,1.67-12.5,5-15.9,3.33-3.4,8-5.1,14-5.1s10.67,1.7,14,5.1c3.33,3.4,5,8.7,5,15.9v143Z"/>
      </g>
      <g>
        <path class="cls-3" d="M494.38,333.8c-5.2,0-9-1.1-11.4-3.3-2.4-2.2-3.6-5.17-3.6-8.9s1.23-6.7,3.7-8.9c2.47-2.2,6.23-3.3,11.3-3.3h154c5.2,0,9,1.1,11.4,3.3,2.4,2.2,3.6,5.17,3.6,8.9s-1.23,6.7-3.7,8.9c-2.47,2.2-6.23,3.3-11.3,3.3h-154ZM562.38,251.2c-6.13,0-11.23.27-15.3.8-4.07.54-7.33,1.33-9.8,2.4-2.47,1.07-4.23,2.37-5.3,3.9-1.07,1.53-1.6,3.3-1.6,5.3,0,1.6.43,3.17,1.3,4.7.87,1.53,2.77,2.87,5.7,4,2.93,1.13,7.07,2.03,12.4,2.7,5.33.67,12.53,1,21.6,1s15.9-.27,21.3-.8c5.4-.53,9.57-1.27,12.5-2.2,2.93-.93,4.87-2.07,5.8-3.4.93-1.33,1.4-2.8,1.4-4.4,0-2.4-1.1-4.47-3.3-6.2-2.2-1.73-5.23-2.6-9.1-2.6-7.87,0-11.8,2.93-11.8,8.8-3.07-1.33-5.33-2.87-6.8-4.6-1.47-1.73-2.2-4.33-2.2-7.8,0-2.53.7-5,2.1-7.4s3.4-4.57,6-6.5c2.6-1.93,5.77-3.47,9.5-4.6,3.73-1.13,7.93-1.7,12.6-1.7,12.93,0,23,2.7,30.2,8.1,7.2,5.4,10.8,12.7,10.8,21.9,0,5.47-1.27,10.54-3.8,15.2-2.53,4.67-6.87,8.67-13,12-6.13,3.33-14.23,5.93-24.3,7.8-10.07,1.87-22.7,2.8-37.9,2.8s-27.83-.93-37.9-2.8c-10.07-1.87-18.17-4.46-24.3-7.8-6.13-3.33-10.47-7.3-13-11.9-2.53-4.6-3.8-9.7-3.8-15.3s1.23-10.2,3.7-14.6c2.47-4.4,6.5-8.17,12.1-11.3,5.6-3.13,12.83-5.57,21.7-7.3,8.87-1.73,19.7-2.6,32.5-2.6,5.6,0,9.73,1.07,12.4,3.2,2.67,2.13,4,5.13,4,9s-1.33,6.87-4,9c-2.67,2.13-6.8,3.2-12.4,3.2ZM650.38,389.4c0,7.2-1.67,12.5-5,15.9-3.33,3.4-8,5.1-14,5.1-4.27,0-7.83-.83-10.7-2.5-2.87-1.67-5.03-4.23-6.5-7.7-9.2,3.87-20.23,6.87-33.1,9-12.87,2.13-27.7,3.2-44.5,3.2-15.6,0-26.87-2.8-33.8-8.4-6.93-5.6-10.4-14.27-10.4-26v-13c0-7.2,1.53-12.5,4.6-15.9,3.07-3.4,8.53-5.1,16.4-5.1h116c7.87,0,13.33,1.7,16.4,5.1,3.06,3.4,4.6,8.7,4.6,15.9v24.4ZM548.38,387.6c27.2,0,48.53-2,64-6v-13.2h-82v5.6c0,4.8,1.2,8.27,3.6,10.4,2.4,2.13,7.2,3.2,14.4,3.2Z"/>
        <path class="cls-3" d="M656.18,281c0-9.2,1.5-17.37,4.5-24.5,3-7.13,6.93-13.1,11.8-17.9,4.87-4.8,10.37-8.43,16.5-10.9,6.13-2.47,12.4-3.7,18.8-3.7s10.57,1.23,12.9,3.7c2.33,2.47,3.5,5.5,3.5,9.1s-.9,6.33-2.7,8.6c-1.8,2.27-4.1,3.87-6.9,4.8-3.87,1.2-7.1,2.67-9.7,4.4-2.6,1.73-4.7,3.87-6.3,6.4-1.6,2.54-2.73,5.43-3.4,8.7-.67,3.27-1,7.03-1,11.3,0,10.54,1.6,18.13,4.8,22.8,3.2,4.67,8.4,7,15.6,7,6.67,0,11.67-2.3,15-6.9,3.33-4.6,5-12.17,5-22.7,0-4.93-.53-8.83-1.6-11.7-1.07-2.87-2.37-4.93-3.9-6.2-1.53-1.27-3.07-1.73-4.6-1.4-1.53.33-2.77,1.23-3.7,2.7,0-2.53.53-5.03,1.6-7.5,1.07-2.46,2.57-4.67,4.5-6.6s4.27-3.5,7-4.7c2.73-1.2,5.83-1.8,9.3-1.8,4.8,0,9,.97,12.6,2.9,3.6,1.93,6.67,4.57,9.2,7.9,2.53,3.33,4.43,7.27,5.7,11.8,1.27,4.54,1.9,9.4,1.9,14.6,0,7.87-1.2,15.1-3.6,21.7-2.4,6.6-6.03,12.3-10.9,17.1-4.87,4.8-10.93,8.54-18.2,11.2-7.27,2.67-15.77,4-25.5,4s-18.23-1.37-25.5-4.1c-7.27-2.73-13.33-6.5-18.2-11.3-4.87-4.8-8.5-10.5-10.9-17.1-2.4-6.6-3.6-13.83-3.6-21.7ZM823.38,391.4c0,7.2-1.67,12.5-5,15.9-3.33,3.4-8,5.1-14,5.1s-10.67-1.7-14-5.1c-3.33-3.4-5-8.7-5-15.9v-23h-104.8c-5.2,0-9-1.1-11.4-3.3-2.4-2.2-3.6-5.17-3.6-8.9s1.23-6.7,3.7-8.9c2.46-2.2,6.23-3.3,11.3-3.3h121.8c7.87,0,13.33,1.7,16.4,5.1,3.07,3.4,4.6,8.7,4.6,15.9v26.4ZM823.38,270.6h8c5.2,0,9,1.1,11.4,3.3,2.4,2.2,3.6,5.17,3.6,8.9s-1.23,6.7-3.7,8.9c-2.47,2.2-6.23,3.3-11.3,3.3h-8v21.6c0,7.2-1.67,12.5-5,15.9-3.33,3.4-8,5.1-14,5.1s-10.67-1.7-14-5.1c-3.33-3.4-5-8.7-5-15.9v-68.2c0-7.2,1.67-12.5,5-15.9,3.33-3.4,8-5.1,14-5.1s10.67,1.7,14,5.1c3.33,3.4,5,8.7,5,15.9v22.2Z"/>
        <path class="cls-3" d="M909.38,238.8h31.6c5.2,0,9,1.1,11.4,3.3,2.4,2.2,3.6,5.17,3.6,8.9s-1.23,6.7-3.7,8.9c-2.47,2.2-6.23,3.3-11.3,3.3h-38.4c-4.8.13-9.27.77-13.4,1.9-4.13,1.13-7.67,2.9-10.6,5.3-2.93,2.4-5.23,5.47-6.9,9.2-1.67,3.73-2.5,8.2-2.5,13.4,0,7.07,1.7,12.47,5.1,16.2,3.4,3.73,8.7,5.6,15.9,5.6,7.6,0,13-1.53,16.2-4.6,3.2-3.07,4.8-7.47,4.8-13.2,0-3.6-.73-6.57-2.2-8.9-1.47-2.33-3.27-4-5.4-5-2.13-1-4.4-1.37-6.8-1.1-2.4.27-4.47,1.13-6.2,2.6,0-4.8,2.2-8.77,6.6-11.9,4.4-3.13,10.33-4.7,17.8-4.7,11.07,0,19.37,2.87,24.9,8.6,5.53,5.73,8.3,13.6,8.3,23.6,0,11.6-4.8,21-14.4,28.2-9.6,7.2-24.13,10.8-43.6,10.8s-34.17-3.67-43.7-11c-9.53-7.33-14.3-17.6-14.3-30.8,0-14.13,6.2-25.53,18.6-34.2h-11c-5.2,0-9-1.1-11.4-3.3-2.4-2.2-3.6-5.17-3.6-8.9s1.23-6.7,3.7-8.9c2.47-2.2,6.23-3.3,11.3-3.3h31.6v-6.2c0-4.67,1.5-8.33,4.5-11,3-2.67,7.83-4,14.5-4s11.5,1.33,14.5,4c3,2.67,4.5,6.33,4.5,11v6.2ZM999.38,391.4c0,7.2-1.67,12.5-5,15.9-3.33,3.4-8,5.1-14,5.1s-10.67-1.7-14-5.1c-3.33-3.4-5-8.7-5-15.9v-17h-104.8c-5.2,0-9-1.1-11.4-3.3-2.4-2.2-3.6-5.17-3.6-8.9s1.23-6.7,3.7-8.9c2.46-2.2,6.23-3.3,11.3-3.3h121.8c7.87,0,13.33,1.7,16.4,5.1,3.07,3.4,4.6,8.7,4.6,15.9v20.4ZM999.38,273.6h8c5.2,0,9,1.1,11.4,3.3,2.4,2.2,3.6,5.17,3.6,8.9s-1.23,6.7-3.7,8.9c-2.47,2.2-6.23,3.3-11.3,3.3h-8v24.6c0,7.2-1.67,12.5-5,15.9-3.33,3.4-8,5.1-14,5.1s-10.67-1.7-14-5.1c-3.33-3.4-5-8.7-5-15.9v-74.2c0-7.2,1.67-12.5,5-15.9,3.33-3.4,8-5.1,14-5.1s10.67,1.7,14,5.1c3.33,3.4,5,8.7,5,15.9v25.2Z"/>
        <path class="cls-3" d="M1060.18,344.8h-39.8c-5.2,0-9-1.1-11.4-3.3-2.4-2.2-3.6-5.17-3.6-8.9s1.23-6.7,3.7-8.9c2.47-2.2,6.23-3.3,11.3-3.3h105.8c5.2,0,9,1.1,11.4,3.3,2.4,2.2,3.6,5.17,3.6,8.9s-1.23,6.7-3.7,8.9c-2.47,2.2-6.23,3.3-11.3,3.3h-28v15c0,4.67-1.5,8.33-4.5,11-3,2.67-7.83,4-14.5,4s-11.5-1.33-14.5-4c-3-2.67-4.5-6.33-4.5-11v-15ZM1012.98,270c0-6.8,1.17-12.87,3.5-18.2,2.33-5.33,5.6-9.87,9.8-13.6,4.2-3.73,9.27-6.57,15.2-8.5,5.93-1.93,12.5-2.9,19.7-2.9,5.87,0,10.03,1.13,12.5,3.4,2.47,2.27,3.7,5.13,3.7,8.6,0,7.47-3.93,11.8-11.8,13-5.33.93-9.1,3.1-11.3,6.5-2.2,3.4-3.3,7.3-3.3,11.7,0,2.67.4,5.17,1.2,7.5.8,2.33,2.07,4.33,3.8,6,1.73,1.67,4,2.97,6.8,3.9,2.8.93,6.27,1.4,10.4,1.4,6.8,0,12.2-1.6,16.2-4.8,4-3.2,6-7.87,6-14,0-2.8-.47-5.27-1.4-7.4-.93-2.13-2.13-3.87-3.6-5.2-1.47-1.33-3.13-2.2-5-2.6-1.87-.4-3.8-.13-5.8.8,0-6.8,1.87-12.23,5.6-16.3,3.73-4.07,9.33-6.1,16.8-6.1,6.8,0,13.03,2.03,18.7,6.1,5.67,4.07,9.43,10.37,11.3,18.9,2.13-.8,4.67-1.2,7.6-1.2h7.8v-8.6c0-7.2,1.67-12.5,5-15.9,3.33-3.4,8-5.1,14-5.1s10.67,1.7,14,5.1c3.33,3.4,5,8.7,5,15.9v85c0,7.2-1.67,12.5-5,15.9-3.33,3.4-8,5.1-14,5.1s-10.67-1.7-14-5.1c-3.33-3.4-5-8.7-5-15.9v-52h-7.8c-1.47,0-2.8-.07-4-.2-1.2-.13-2.33-.4-3.4-.8-2.27,10.4-8.2,18.47-17.8,24.2-9.6,5.73-23.33,8.6-41.2,8.6-20.53,0-35.7-3.8-45.5-11.4-9.8-7.6-14.7-18.2-14.7-31.8ZM1055.38,375c0,2,.37,3.83,1.1,5.5.73,1.67,2.57,3.03,5.5,4.1,2.93,1.07,7.33,1.9,13.2,2.5,5.87.6,13.87.9,24,.9,15.2,0,27.37-.57,36.5-1.7,9.13-1.13,16.17-2.77,21.1-4.9,4.93-2.13,8.2-4.6,9.8-7.4,1.6-2.8,2.4-5.93,2.4-9.4,5.47,0,9.87,1.47,13.2,4.4,3.33,2.93,5,6.6,5,11,0,4.67-1.6,8.97-4.8,12.9-3.2,3.93-8.73,7.37-16.6,10.3-7.87,2.93-18.37,5.2-31.5,6.8-13.13,1.6-29.63,2.4-49.5,2.4-13.6,0-24.77-.77-33.5-2.3-8.73-1.53-15.6-3.77-20.6-6.7-5-2.93-8.47-6.43-10.4-10.5-1.93-4.07-2.9-8.63-2.9-13.7v-6.2c0-7.2,1.67-12.5,5-15.9,3.33-3.4,8-5.1,14-5.1s10.67,1.7,14,5.1c3.33,3.4,5,8.7,5,15.9v2Z"/>
      </g>
      <path class="cls-2" d="M152.39,75.67c135.08-166.5,119.52,36.73,208.95,56.21,128.37,27.96,51.59,243.21-11.31,239.71-120.56-6.72-143.9,66.11-239.71,11.31C-46.96,292.95-.35,300.53,34.93,169.04c10.4-38.75,87.05-55.89,117.46-93.37Z"/>
      <path class="cls-1" d="M54.98,149.13c-23.14-221.01,115.08-60.67,195.3-111.93,115.14-73.59,217.13,140.43,168.21,183.96-93.74,83.43-57.29,153.91-168.21,183.96-182.09,49.34-142.18,20.73-213.04-101.49-20.88-36.02,22.95-104.76,17.74-154.51Z"/>
    </g>
  </g>
</svg>